<svg xmlns="http://www.w3.org/2000/svg" viewBox="0 0 48 48" width="48" height="48">
  <rect width="48" height="48" rx="11" fill="#1FA855"/>
  <path fill="#ffffff" d="M24 9c-8.28 0-15 6.5-15 14.52 0 2.86.86 5.52 2.34 7.77L9 39l7.1-2.27A15.5 15.5 0 0 0 24 38.5c8.28 0 15-6.5 15-14.52S32.28 9 24 9Zm0 26.2c-2.3 0-4.45-.62-6.28-1.7l-.45-.27-4.2 1.34 1.36-4.03-.3-.46a11.1 11.1 0 0 1-1.86-6.1c0-6.32 5.3-11.45 11.73-11.45 6.43 0 11.73 5.13 11.73 11.45S30.43 35.2 24 35.2Z"/>
  <circle cx="18.5" cy="23.5" r="2.1" fill="#ffffff"/>
  <circle cx="24" cy="23.5" r="2.1" fill="#ffffff"/>
  <circle cx="29.5" cy="23.5" r="2.1" fill="#ffffff"/>
</svg>
